<svg id="Group_186" data-name="Group 186" xmlns="http://www.w3.org/2000/svg" xmlns:xlink="http://www.w3.org/1999/xlink" width="30.1" height="41.622" viewBox="0 0 30.1 41.622">
  <defs>
    <clipPath id="clip-path">
      <rect id="Rectangle_123" data-name="Rectangle 123" width="30.1" height="41.622" fill="none"/>
    </clipPath>
  </defs>
  <g id="Group_185" data-name="Group 185" clip-path="url(#clip-path)">
    <path id="Path_61" data-name="Path 61" d="M8.658,36.185a1.029,1.029,0,0,1,0-2.057l11.6-.022c.277-.058.435-.208.435-.419s-.158-.368-.438-.428L9.989,33.247A2.691,2.691,0,0,1,7.577,31.8a2.722,2.722,0,0,1-.115-.268,2.582,2.582,0,0,1,.321-2.4,2.766,2.766,0,0,1,2.266-1.186H20.8a.118.118,0,0,0,.118-.118,2.038,2.038,0,0,1,.954-1.724,12.993,12.993,0,1,0-13.423.128A1.029,1.029,0,0,1,7.4,28.011,15.127,15.127,0,0,1,0,15.05,15.051,15.051,0,0,1,15.637.011,15.052,15.052,0,0,1,22.971,27.85,2.178,2.178,0,0,1,20.8,30.013H10.049a.707.707,0,0,0-.578.305.541.541,0,0,0-.078.51.6.6,0,0,0,.026.062.633.633,0,0,0,.572.3l10.43.012.077.012a2.48,2.48,0,0,1-.005,4.938l-.148.011L8.66,36.185Z" transform="translate(0 0)"/>
    <path id="Path_62" data-name="Path 62" d="M42.568,130.749H39.152a2.263,2.263,0,1,1,0-4.526h3.416a2.263,2.263,0,1,1,0,4.526m-3.416-2.763a.5.5,0,0,0,0,1h3.416a.5.5,0,1,0,0-1Z" transform="translate(-26.048 -89.127)"/>
    <path id="Path_63" data-name="Path 63" d="M32.084,45.609A2.887,2.887,0,0,1,29.173,43,4.787,4.787,0,0,1,30.3,39.385a4.6,4.6,0,0,0-1.371-.21c-1.256,0-2.752.806-2.752,4.643a1.029,1.029,0,1,1-2.057,0c0-4.2,1.8-6.7,4.81-6.7a6.659,6.659,0,0,1,3.147.8,6.657,6.657,0,0,1,3.89-.791c2.539.262,4.344,3.009,4.39,6.682a1.029,1.029,0,0,1-1.016,1.041A1.04,1.04,0,0,1,38.3,43.831c-.031-2.511-1.124-4.515-2.543-4.661a4.618,4.618,0,0,0-1.888.2A4.727,4.727,0,0,1,34.995,43a2.887,2.887,0,0,1-2.911,2.608m.01-5.143a2.848,2.848,0,0,0-.88,2.28.872.872,0,0,0,1.74,0A2.724,2.724,0,0,0,32.22,40.6c-.041-.046-.083-.092-.126-.136" transform="translate(-17.033 -26.189)"/>
  </g>
</svg>
