<?xml version="1.0" encoding="utf-8"?>
<!-- Generator: Adobe Illustrator 28.2.0, SVG Export Plug-In . SVG Version: 6.00 Build 0)  -->
<svg version="1.1" id="レイヤー_1" xmlns="http://www.w3.org/2000/svg" xmlns:xlink="http://www.w3.org/1999/xlink" x="0px"
	 y="0px" viewBox="0 0 24 24" style="enable-background:new 0 0 24 24;" xml:space="preserve">
<style type="text/css">
	.st0{clip-path:url(#SVGID_00000135664455058835160790000015639145840189266318_);}
	.st1{fill:#FF905D;}
</style>
<g>
	<defs>
		<rect id="SVGID_1_" x="3.3" width="17.4" height="24"/>
	</defs>
	<clipPath id="SVGID_00000034059032535693225610000010456485917698539675_">
		<use xlink:href="#SVGID_1_"  style="overflow:visible;"/>
	</clipPath>
	<g id="Group_149" style="clip-path:url(#SVGID_00000034059032535693225610000010456485917698539675_);">
		<path id="Path_51" class="st1" d="M8.3,20.9c-0.3,0-0.6-0.3-0.6-0.6c0-0.3,0.3-0.6,0.6-0.6l6.7,0c0.2,0,0.3-0.1,0.3-0.2
			s-0.1-0.2-0.3-0.2l-5.9,0c-0.6,0-1.1-0.3-1.4-0.8c0-0.1,0-0.1-0.1-0.2c-0.2-0.5-0.1-1,0.2-1.4c0.3-0.4,0.8-0.7,1.3-0.7h6.2
			c0,0,0.1,0,0.1-0.1l0,0c0-0.4,0.2-0.8,0.6-1c3.5-2.2,4.6-6.8,2.4-10.3S11.6,0.1,8.1,2.3S3.5,9.1,5.6,12.6c0.6,1,1.5,1.9,2.6,2.5
			c0.3,0.2,0.4,0.5,0.2,0.8c-0.2,0.3-0.5,0.4-0.8,0.2C5,14.6,3.3,11.7,3.3,8.7C3.3,3.9,7.2,0,12,0c0.1,0,0.2,0,0.3,0
			c4.8,0.2,8.5,4.2,8.3,9c-0.1,2.9-1.7,5.5-4.1,7c0,0.7-0.6,1.2-1.3,1.2H9.1c-0.1,0-0.3,0.1-0.3,0.2c-0.1,0.1-0.1,0.2,0,0.3
			c0,0,0,0,0,0C8.8,17.9,8.9,18,9.1,18l6,0l0,0c0.8,0.1,1.4,0.8,1.3,1.6c-0.1,0.7-0.6,1.2-1.3,1.3l-0.1,0L8.3,20.9L8.3,20.9z"/>
		<path id="Path_52" class="st1" d="M12.8,24h-2c-0.7,0-1.3-0.6-1.3-1.3c0-0.7,0.6-1.3,1.3-1.3h2c0.7,0,1.3,0.6,1.3,1.3
			C14.2,23.4,13.6,24,12.8,24L12.8,24 M10.9,22.4c-0.2,0-0.3,0.1-0.3,0.3c0,0.2,0.1,0.3,0.3,0.3h2c0.2,0,0.3-0.1,0.3-0.3
			c0-0.2-0.1-0.3-0.3-0.3H10.9z"/>
		<path id="Path_53" class="st1" d="M12,11.2c-0.9,0-1.6-0.6-1.7-1.5c-0.1-0.8,0.2-1.5,0.6-2.1c-0.3-0.1-0.5-0.1-0.8-0.1
			c-0.7,0-1.6,0.5-1.6,2.7c0,0.3-0.3,0.6-0.6,0.6c-0.3,0-0.6-0.3-0.6-0.6c0-2.4,1-3.9,2.8-3.9c0.6,0,1.3,0.2,1.8,0.5
			c0.7-0.4,1.5-0.5,2.2-0.5c1.5,0.2,2.5,1.7,2.5,3.9c0,0.3-0.3,0.6-0.6,0.6c-0.3,0-0.6-0.3-0.6-0.6c0-1.4-0.6-2.6-1.5-2.7
			c-0.4,0-0.7,0-1.1,0.1c0.5,0.6,0.7,1.3,0.6,2.1C13.6,10.6,12.9,11.2,12,11.2 M12,8.2c-0.4,0.3-0.5,0.8-0.5,1.3
			c0,0.3,0.3,0.5,0.5,0.5c0.3,0,0.5-0.2,0.5-0.5C12.5,9.1,12.4,8.6,12,8.2C12.1,8.3,12,8.3,12,8.2"/>
	</g>
</g>
</svg>
