<?xml version="1.0" encoding="utf-8"?>
<!-- Generator: Adobe Illustrator 28.2.0, SVG Export Plug-In . SVG Version: 6.00 Build 0)  -->
<svg version="1.1" id="レイヤー_1" xmlns="http://www.w3.org/2000/svg" xmlns:xlink="http://www.w3.org/1999/xlink" x="0px"
	 y="0px" viewBox="0 0 24 24" style="enable-background:new 0 0 24 24;" xml:space="preserve">
<style type="text/css">
	.st0{clip-path:url(#SVGID_00000075147056769345632380000003042035526454934445_);}
	.st1{fill:#707070;}
</style>
<g>
	<defs>
		<rect id="SVGID_1_" x="0.1" y="0" width="23.8" height="23.9"/>
	</defs>
	<clipPath id="SVGID_00000066494273924557140650000014334023621932744849_">
		<use xlink:href="#SVGID_1_"  style="overflow:visible;"/>
	</clipPath>
	<g id="Group_72" transform="translate(0 0)" style="clip-path:url(#SVGID_00000066494273924557140650000014334023621932744849_);">
		<path id="Path_30" class="st1" d="M12.1,24c-2,0-3.6-1.4-4.1-3.3H1.7c-0.9,0-1.6-0.7-1.6-1.6c0-0.6,0.3-1.1,0.9-1.4
			c0.8-0.4,2-1,2.7-1.3v-6c0-3.5,2.2-6.6,5.5-7.8c0.1-1.5,1.4-2.6,2.9-2.5c1.3,0.1,2.3,1.1,2.5,2.4c3.5,1.1,5.8,4.3,5.8,7.9
			c0,0.1,0,4.4,0,6l2.7,1.4c0.8,0.4,1.1,1.3,0.7,2.1c-0.3,0.5-0.8,0.9-1.4,0.9H11.4c-0.5,0-0.9-0.4-0.9-0.9c0-0.5,0.4-0.9,0.9-0.9
			h10.1l-3-1.5l0-0.5c0-0.3,0-6.3,0-6.5c0-3.1-2.1-5.7-5.2-6.4l-0.8-0.2l0.2-0.8c0-0.1,0-0.1,0-0.2c0-0.5-0.4-0.9-0.9-0.9
			c-0.5,0-0.9,0.4-0.9,0.9c0,0.1,0,0.1,0,0.2l0.2,0.8L10.3,4c-2.9,0.8-4.9,3.4-4.9,6.3v7.1l-0.5,0.3c-0.1,0.1-1.5,0.8-2.4,1.2h7.3
			v0.9c0,1.3,1.1,2.4,2.4,2.4c0.8,0,1.5-0.4,2-1c0.3-0.4,0.8-0.5,1.2-0.2c0.4,0.3,0.5,0.8,0.2,1.2l0,0C14.8,23.3,13.5,24,12.1,24"/>
	</g>
</g>
</svg>
