<?xml version="1.0" encoding="utf-8"?>
<!-- Generator: Adobe Illustrator 28.2.0, SVG Export Plug-In . SVG Version: 6.00 Build 0)  -->
<svg version="1.1" id="レイヤー_1" xmlns="http://www.w3.org/2000/svg" xmlns:xlink="http://www.w3.org/1999/xlink" x="0px"
	 y="0px" viewBox="0 0 24 24" style="enable-background:new 0 0 24 24;" xml:space="preserve">
<style type="text/css">
	.st0{fill:#FFFFFF;}
</style>
<path id="Path_103" class="st0" d="M22.9,2.9L22.9,2.9L22.9,2.9L22.9,2.9L22.9,2.9l-1.7-1.7l0,0c-1.5-1.5-4-1.5-5.6,0L14,2.8
	l-0.6,0.6L0,16.7V24h7.3l13.4-13.4l0.6-0.6l1.6-1.6C24.4,6.9,24.4,4.4,22.9,2.9L22.9,2.9z M6.4,21.9H2.1v-4.3L14.9,4.9l4.3,4.3
	L6.4,21.9z M21.4,6.9l-1,1l-4.3-4.3l1-1c0.7-0.7,1.9-0.7,2.6,0c0,0,0,0,0,0l1.7,1.7C22.1,5.1,22.1,6.2,21.4,6.9"/>
</svg>
