<?xml version="1.0" encoding="utf-8"?>
<!-- Generator: Adobe Illustrator 28.1.0, SVG Export Plug-In . SVG Version: 6.00 Build 0)  -->
<svg version="1.1" id="Group_60" xmlns="http://www.w3.org/2000/svg" xmlns:xlink="http://www.w3.org/1999/xlink" x="0px" y="0px"
	 viewBox="0 0 24 24" style="enable-background:new 0 0 24 24;" xml:space="preserve">
<!--<style type="text/css">-->
<!--	.st0{clip-path:url(#SVGID_00000155129654452172111770000014376938884872074155_);}-->
<!--	.st1{fill:#707070;}-->
<!--</style>-->
<g>
	<defs>
		<rect id="SVGID_1_" x="2.7" y="0" width="18.6" height="23.9"/>
	</defs>
	<clipPath id="SVGID_00000131348197035602755220000002775277213593765260_">
		<use xlink:href="#SVGID_1_"  style="overflow:visible;"/>
	</clipPath>
	<g id="Group_59" style="clip-path:url(#SVGID_00000131348197035602755220000002775277213593765260_);">
		<path id="Path_23" class="st1" d="M20.5,24c-0.4,0-0.7-0.3-0.8-0.7l-0.1-5c0-2.4-2-4.4-4.4-4.4H8.6c-2.4,0-4.4,2-4.4,4.4l0.1,5
			C4.3,23.6,4,24,3.6,24c-0.4,0-0.8-0.3-0.8-0.7c0,0,0,0,0,0l-0.1-5c0-3.3,2.6-5.9,5.9-5.9h6.7c3.3,0,5.9,2.6,5.9,5.9l0.1,5
			C21.3,23.6,21,24,20.5,24C20.5,24,20.5,24,20.5,24L20.5,24"/>
		<path id="Path_24" class="st1" d="M12.1,11.4c-3.1,0-5.7-2.5-5.7-5.7C6.4,2.6,9,0,12.1,0c3.1,0,5.7,2.5,5.7,5.7
			C17.8,8.8,15.2,11.4,12.1,11.4 M12.1,1.6c-2.3,0-4.2,1.9-4.2,4.2s1.9,4.2,4.2,4.2s4.2-1.9,4.2-4.2c0,0,0,0,0,0
			C16.3,3.4,14.4,1.6,12.1,1.6"/>
	</g>
</g>
</svg>
