<?xml version="1.0" encoding="utf-8"?>
<!-- Generator: Adobe Illustrator 28.1.0, SVG Export Plug-In . SVG Version: 6.00 Build 0)  -->
<svg version="1.1" id="Group_58" xmlns="http://www.w3.org/2000/svg" xmlns:xlink="http://www.w3.org/1999/xlink" x="0px" y="0px"
	 viewBox="0 0 24 24" style="enable-background:new 0 0 24 24;" xml:space="preserve">
<!--<style type="text/css">-->
<!--	.st0{clip-path:url(#SVGID_00000018232101312323520050000002861204732178430864_);}-->
<!--	.st1{fill:#707070;}-->
<!--</style>-->
<g>
	<defs>
		<rect id="SVGID_1_" y="2.1" width="24" height="19.8"/>
	</defs>
	<clipPath id="SVGID_00000169517564685198917590000006427368011139662777_">
		<use xlink:href="#SVGID_1_"  style="overflow:visible;"/>
	</clipPath>
	<g id="Group_57" style="clip-path:url(#SVGID_00000169517564685198917590000006427368011139662777_);">
		<path id="Path_20" class="st1" d="M15.1,17.4H4.3c-0.9,0-1.7-0.6-2-1.5L0.1,7.4c-0.2-0.8,0.3-1.7,1.1-1.9c0.1,0,0.3-0.1,0.4-0.1
			l14.1-0.1h0c0.3,0,0.6,0.3,0.6,0.6c0,0.3-0.3,0.6-0.6,0.6L1.6,6.7c-0.1,0-0.2,0-0.3,0.1C1.3,6.9,1.2,7,1.3,7.1l2.3,8.5
			c0.1,0.3,0.4,0.6,0.8,0.6h10.8c0.4,0,0.7-0.3,0.8-0.7l2.5-11.2c0.3-1.3,1.4-2.2,2.7-2.2h2.3c0.3,0,0.6,0.3,0.6,0.6
			s-0.3,0.6-0.6,0.6h-2.3c-0.7,0-1.3,0.5-1.5,1.2l-2.5,11.2C16.9,16.7,16.1,17.4,15.1,17.4"/>
		<path id="Path_21" class="st1" d="M4,21.9c-1.2,0-2.2-1-2.2-2.2c0-1.2,1-2.2,2.2-2.2s2.2,1,2.2,2.2c0,0,0,0,0,0
			C6.2,20.9,5.2,21.9,4,21.9 M4,18.8c-0.5,0-0.9,0.4-0.9,0.9c0,0.5,0.4,0.9,0.9,0.9S5,20.2,5,19.7l0,0C5,19.2,4.5,18.8,4,18.8"/>
		<path id="Path_22" class="st1" d="M15.6,21.9c-1.2,0-2.2-1-2.2-2.2c0-1.2,1-2.2,2.2-2.2s2.2,1,2.2,2.2v0
			C17.8,20.9,16.9,21.9,15.6,21.9 M15.6,18.8c-0.5,0-0.9,0.4-0.9,0.9c0,0.5,0.4,0.9,0.9,0.9c0.5,0,0.9-0.4,0.9-0.9l0,0
			C16.6,19.2,16.2,18.8,15.6,18.8"/>
	</g>
</g>
</svg>
