<?xml version="1.0" encoding="utf-8"?>
<!-- Generator: Adobe Illustrator 28.1.0, SVG Export Plug-In . SVG Version: 6.00 Build 0)  -->
<svg version="1.1" id="レイヤー_1" xmlns="http://www.w3.org/2000/svg" xmlns:xlink="http://www.w3.org/1999/xlink" x="0px"
	 y="0px" viewBox="0 0 24 24" style="enable-background:new 0 0 24 24;" xml:space="preserve">
<g>
	<g id="Group_61" transform="matrix(0.766, -0.643, 0.643, 0.766, 0, 16.281)">
		<path id="Path_25" class="st0" d="M9,11.6c-0.3,0-0.5-0.2-0.5-0.5c0-0.3,0.2-0.5,0.5-0.5l5.4,0c0.1,0,0.2-0.1,0.2-0.2
			s-0.1-0.2-0.2-0.2l-4.8,0c-0.5,0-0.9-0.3-1.1-0.7c0,0,0-0.1-0.1-0.1C8.3,9.1,8.3,8.6,8.6,8.3C8.8,8,9.2,7.8,9.6,7.8h5
			c0,0,0.1,0,0.1-0.1l0,0c0-0.3,0.2-0.6,0.4-0.8c2.8-1.8,3.7-5.5,2-8.3s-5.5-3.7-8.3-2S5,2.1,6.8,4.9C7.3,5.8,8,6.5,8.9,7
			C9.1,7.1,9.2,7.4,9,7.6C8.9,7.8,8.6,7.9,8.4,7.8c-2.1-1.3-3.4-3.6-3.4-6c0-3.9,3.1-7,7-7c0.1,0,0.2,0,0.3,0
			c3.9,0.2,6.9,3.4,6.7,7.3c-0.1,2.3-1.3,4.5-3.3,5.7c0,0.6-0.5,1-1,1h-5c-0.1,0-0.2,0.1-0.3,0.1C9.3,8.9,9.3,9,9.3,9.1c0,0,0,0,0,0
			c0.1,0.1,0.2,0.1,0.3,0.1l4.9,0l0,0c0.6,0.1,1.1,0.6,1,1.3c-0.1,0.6-0.5,1-1,1l-0.1,0L9,11.6L9,11.6z"/>
		<path id="Path_26" class="st0" d="M12.6,14.1H11c-0.6,0-1.1-0.5-1.1-1.1c0-0.6,0.5-1.1,1.1-1.1h1.6c0.6,0,1.1,0.5,1.1,1.1
			C13.7,13.6,13.2,14.1,12.6,14.1L12.6,14.1 M11,12.8c-0.1,0-0.2,0.1-0.2,0.2c0,0.1,0.1,0.2,0.2,0.2h1.6c0.1,0,0.2-0.1,0.2-0.2
			s-0.1-0.2-0.2-0.2H11z"/>
		<path id="Path_27" class="st0" d="M11.9,3.8c-0.7,0-1.3-0.5-1.4-1.2c-0.1-0.6,0.1-1.2,0.5-1.7c-0.2-0.1-0.4-0.1-0.6-0.1
			C9.9,0.8,9.2,1.2,9.2,3c0,0.3-0.2,0.5-0.5,0.5C8.5,3.5,8.2,3.3,8.2,3c0,0,0,0,0,0c0-2,0.8-3.1,2.2-3.1c0.5,0,1,0.1,1.5,0.4
			c0.6-0.3,1.2-0.4,1.8-0.4c1.2,0.1,2,1.4,2,3.1c0,0.3-0.2,0.5-0.5,0.5c-0.3,0-0.5-0.2-0.5-0.5c0-1.2-0.5-2.1-1.2-2.2
			c-0.3,0-0.6,0-0.9,0.1c0.4,0.5,0.6,1.1,0.5,1.7C13.2,3.3,12.6,3.8,11.9,3.8 M11.9,1.4c-0.3,0.3-0.4,0.7-0.4,1.1
			c0,0.2,0.2,0.4,0.4,0.4c0.2,0,0.4-0.2,0.4-0.4C12.4,2.1,12.3,1.7,11.9,1.4C12,1.4,12,1.4,11.9,1.4"/>
	</g>
</g>
</svg>
