<?xml version="1.0" encoding="utf-8"?>
<!-- Generator: Adobe Illustrator 28.1.0, SVG Export Plug-In . SVG Version: 6.00 Build 0)  -->
<svg version="1.1" id="レイヤー_1" xmlns="http://www.w3.org/2000/svg" xmlns:xlink="http://www.w3.org/1999/xlink" x="0px"
	 y="0px" viewBox="0 0 24 24" style="enable-background:new 0 0 24 24;" xml:space="preserve">
<!--<style type="text/css">-->
<!--	.st0{clip-path:url(#SVGID_00000124142007454470482680000015524108477760499351_);}-->
<!--	.st1{fill:#707070;}-->
<!--</style>-->
<g>
	<defs>
		<rect id="SVGID_1_" x="0.1" y="2.7" width="23.9" height="18.5"/>
	</defs>
	<clipPath id="SVGID_00000167382767750699371110000006790825203394302858_">
		<use xlink:href="#SVGID_1_"  style="overflow:visible;"/>
	</clipPath>
	<g id="Group_198" style="clip-path:url(#SVGID_00000167382767750699371110000006790825203394302858_);">
		<path id="Path_70" class="st1" d="M23.3,21.3c-0.1,0-0.3,0-0.4-0.1c-1.6-1.1-3.5-1.6-5.4-1.6h-0.1c-1.8,0-3.6,0.5-5.1,1.5
			c-0.2,0.1-0.5,0.1-0.7,0c-1.6-1-3.4-1.5-5.3-1.5c-1.9,0-3.8,0.6-5.3,1.6c-0.3,0.2-0.7,0.1-0.9-0.2c-0.1-0.1-0.1-0.2-0.1-0.4v-15
			c0-0.2,0.1-0.4,0.2-0.5c1.7-1.5,3.8-2.3,6-2.4c2.1,0,4.1,0.6,5.7,1.8c1.6-1.1,3.4-1.8,5.3-1.8h0.2c2.3,0,4.5,0.9,6.2,2.4
			c0.1,0.1,0.2,0.3,0.2,0.5v15C23.9,21,23.6,21.3,23.3,21.3 M6.5,18.2c2,0,3.9,0.5,5.5,1.5c1.7-1,3.5-1.5,5.5-1.5h0.1
			c1.8,0,3.5,0.4,5.1,1.3V5.9c-3-2.5-7.3-2.5-10.2,0c-0.2,0.2-0.6,0.2-0.8,0l0,0C10.1,4.7,8.2,4,6.3,4c-1.8,0-3.6,0.7-5,1.8v13.6
			C2.9,18.6,4.6,18.2,6.5,18.2L6.5,18.2 M12,5.4L12,5.4L12,5.4z"/>
		<path id="Path_71" class="st1" d="M12,18.5c-0.4,0-0.6-0.3-0.6-0.6l0,0V7.3c0-0.4,0.3-0.6,0.6-0.6c0.4,0,0.6,0.3,0.6,0.6l0,0v10.5
			C12.6,18.2,12.4,18.5,12,18.5L12,18.5"/>
	</g>
</g>
</svg>
